<?xml version="1.0" standalone="no"?>
<!DOCTYPE svg PUBLIC "-//W3C//DTD SVG 20010904//EN"
 "http://www.w3.org/TR/2001/REC-SVG-20010904/DTD/svg10.dtd">
<svg version="1.0" xmlns="http://www.w3.org/2000/svg"
 width="228.000000pt" height="61.000000pt" viewBox="0 0 228.000000 61.000000"
 preserveAspectRatio="xMidYMid meet">

<g transform="translate(0.000000,61.000000) scale(0.100000,-0.100000)"
fill="#000000" stroke="none">
<path d="M0 305 l0 -305 1140 0 1140 0 0 206 0 206 -22 -14 c-27 -17 -101 -31
-93 -18 3 6 20 14 38 19 25 7 27 9 9 10 -35 1 -91 -25 -134 -65 -29 -26 -43
-32 -52 -25 -9 7 -22 7 -45 -2 -30 -11 -33 -10 -57 21 -14 17 -31 32 -37 32
-6 0 -27 -15 -47 -34 -31 -30 -80 -56 -80 -43 0 3 28 32 62 65 60 58 62 61 45
80 -24 27 -21 32 13 26 28 -6 31 -3 49 37 11 24 17 47 15 51 -3 4 1 8 9 8 22
0 27 -24 11 -55 -18 -35 -18 -38 5 -30 11 3 22 1 26 -5 4 -6 -6 -13 -24 -16
-35 -7 -74 -45 -66 -65 8 -21 59 -49 89 -49 17 0 38 12 57 33 31 32 31 20 0
-18 -9 -11 0 -6 20 10 20 17 44 35 55 41 10 7 15 15 11 20 -4 5 -17 2 -29 -5
-20 -13 -20 -12 2 23 12 21 20 46 17 56 -4 16 0 20 18 20 13 0 27 4 30 10 4 6
-1 7 -12 3 -17 -7 -17 -6 0 20 10 15 15 33 11 39 -4 6 -1 9 7 6 8 -2 18 -14
24 -26 8 -18 15 -21 37 -16 24 5 28 3 28 -18 -1 -13 -14 -39 -30 -58 -17 -19
-30 -38 -30 -42 0 -4 16 -7 35 -5 l35 2 0 88 0 87 -1140 0 -1140 0 0 -305z
m435 264 c63 -31 129 -107 151 -171 22 -66 15 -167 -15 -225 -91 -180 -336
-220 -474 -78 -108 111 -115 283 -18 397 38 45 93 82 142 97 55 17 160 7 214
-20z m455 -14 c9 -11 10 -27 5 -58 -5 -23 -9 -81 -10 -130 -2 -88 -9 -113 -24
-88 -12 18 -27 7 -57 -40 -27 -44 -42 -46 -56 -10 -6 18 -5 22 6 18 7 -3 31
13 54 36 l41 42 7 101 c6 84 4 105 -10 126 -9 13 -13 27 -10 31 8 8 36 -7 54
-28z m530 -5 c11 -11 29 -19 41 -17 36 4 32 -17 -6 -29 -25 -8 -36 -8 -38 0
-3 8 -9 7 -18 -1 -7 -7 -20 -13 -28 -13 -11 0 -10 4 5 21 15 17 16 23 6 40
-17 27 11 26 38 -1z m330 -4 c0 -7 -7 -19 -15 -26 -8 -7 -15 -21 -15 -30 0
-10 -6 -21 -12 -23 -8 -3 -5 -6 6 -6 16 -1 17 -7 12 -48 -11 -76 -17 -103 -25
-103 -4 0 -5 30 -3 67 4 61 3 66 -11 54 -12 -9 -14 -18 -7 -31 10 -18 2 -90
-10 -90 -4 0 -12 19 -17 43 l-11 42 -1 -38 c-1 -46 -21 -40 -21 6 0 36 6 47
35 63 11 6 26 24 34 40 8 16 18 37 23 47 12 24 4 21 -36 -14 -20 -17 -43 -29
-52 -27 -12 2 -1 15 37 45 55 42 89 54 89 29z m-728 -68 l27 -28 -27 -31 c-14
-17 -33 -45 -42 -62 -25 -46 -43 -47 -35 -3 5 26 4 36 -5 36 -9 0 -8 6 3 18
11 12 17 36 17 69 0 55 10 74 25 47 5 -10 22 -31 37 -46z m1088 -4 c0 -13 -4
-24 -9 -24 -13 0 -17 9 -25 55 l-6 40 20 -24 c11 -13 20 -34 20 -47z m-909 46
c27 -15 24 -27 -11 -45 -28 -14 -44 -5 -19 11 8 4 4 13 -12 25 l-24 19 23 0
c13 0 32 -5 43 -10z m49 -50 c0 -5 -23 -20 -52 -34 -42 -20 -55 -23 -72 -13
-20 10 -19 12 14 17 19 4 49 14 65 23 35 19 45 21 45 7z m208 -2 c19 -19 14
-28 -14 -28 -14 0 -23 4 -19 10 9 14 -6 12 -24 -4 -9 -7 -29 -16 -46 -20 -29
-7 -29 -6 -13 10 16 16 68 40 94 43 5 0 15 -4 22 -11z m610 0 c7 -7 12 -21 12
-31 0 -16 -3 -17 -14 -8 -15 13 -28 51 -17 51 4 0 12 -5 19 -12z m-848 -63
c-22 -23 -22 -25 -4 -25 17 0 16 -3 -6 -20 -19 -15 -24 -26 -22 -54 4 -37 -5
-45 -26 -24 -8 8 -15 8 -26 -2 -16 -13 -46 -8 -46 8 0 5 10 14 23 21 19 10 22
18 19 53 -4 33 -1 40 10 36 8 -3 25 3 39 13 13 10 33 19 43 19 18 0 18 -2 -4
-25z m206 0 c4 -8 1 -21 -5 -28 -8 -10 -2 -22 27 -49 20 -19 46 -40 57 -46 17
-10 13 -11 -26 -12 -44 0 -47 2 -64 40 l-18 41 -26 -24 c-25 -23 -63 -47 -75
-47 -3 0 12 16 34 36 41 37 49 61 28 82 -7 7 -8 12 -2 12 6 0 15 -5 22 -12 9
-9 13 -7 18 5 8 21 23 22 30 2z m162 -7 c17 -17 15 -38 -3 -38 -8 0 -15 4 -15
9 0 5 -3 16 -6 25 -7 19 7 21 24 4z m-750 -44 c2 -15 -7 -29 -27 -44 -30 -21
-43 -16 -19 8 9 9 6 18 -13 38 l-24 25 40 -3 c32 -2 41 -7 43 -24z m1331 -10
c-11 -13 -9 -15 12 -10 29 7 59 -8 44 -23 -6 -5 -19 -11 -30 -13 -17 -3 -20
-12 -23 -61 -3 -65 -10 -69 -72 -37 -45 23 -56 45 -14 30 45 -17 54 -13 54 26
0 31 -3 35 -17 29 -33 -14 -61 -17 -67 -7 -3 5 12 14 34 21 47 14 61 31 26 31
-14 0 -26 4 -26 9 0 10 26 17 69 20 20 1 22 -1 10 -15z m-931 -6 c14 -14 16
-48 3 -48 -12 0 -41 46 -34 54 9 9 18 7 31 -6z m372 -17 c0 -26 73 -55 117
-46 41 7 42 -5 2 -27 -30 -17 -31 -17 -62 5 -18 13 -53 32 -79 41 -55 20 -63
31 -16 20 29 -6 31 -5 19 10 -11 14 -11 16 3 16 9 0 16 -8 16 -19z m-580 -11
c12 -8 9 -15 -20 -39 -41 -35 -55 -39 -40 -11 9 17 8 20 -12 20 -20 1 -18 3
12 20 41 23 41 22 60 10z m-197 -237 c7 -35 2 -43 -29 -43 -21 0 -24 5 -24 35
0 30 3 35 24 35 18 0 25 -7 29 -27z m50 20 c-13 -2 -23 -9 -23 -14 0 -5 10
-10 23 -10 l22 -2 -22 -4 c-13 -2 -23 -8 -23 -13 0 -5 10 -11 23 -13 19 -4 18
-4 -5 -6 -26 -1 -28 2 -28 34 0 32 2 35 28 34 23 -2 24 -2 5 -6z m34 -45 c-2
-13 -4 -5 -4 17 -1 22 1 32 4 23 2 -10 2 -28 0 -40z m53 17 c0 -34 -20 -49
-35 -25 -3 6 1 7 9 4 12 -5 16 1 16 25 0 17 2 31 5 31 3 0 5 -16 5 -35z m27
-17 c-2 -13 -4 -5 -4 17 -1 22 1 32 4 23 2 -10 2 -28 0 -40z m44 25 l14 -26 6
29 c6 26 7 25 7 -11 l1 -40 -24 29 -23 29 -5 -29 c-3 -25 -4 -24 -6 9 -1 43
10 48 30 10z m99 18 c0 -5 -9 -7 -20 -4 -13 3 -22 -1 -26 -12 -9 -22 10 -39
33 -31 15 6 15 8 3 16 -13 8 -12 10 3 10 12 0 17 -6 15 -17 -4 -23 -47 -24
-61 -1 -8 12 -7 21 2 32 14 17 51 22 51 7z m76 -47 c-6 -16 -36 -19 -36 -4 0
5 7 7 15 4 11 -5 15 2 16 27 1 25 3 28 6 11 3 -13 2 -30 -1 -38z m21 4 c-2
-13 -4 -5 -4 17 -1 22 1 32 4 23 2 -10 2 -28 0 -40z m71 10 c11 -26 10 -27 -7
-16 -15 9 -23 9 -37 -3 -10 -8 -15 -9 -11 -3 3 6 11 24 17 39 11 30 19 26 38
-17z m135 34 c-6 -4 -13 -21 -16 -37 l-4 -30 -2 33 c-1 40 -28 44 -33 5 -2
-22 -8 -28 -27 -28 -31 0 -50 28 -33 48 9 10 32 15 70 16 31 0 52 -3 45 -7z
m72 -27 c0 -25 -4 -30 -24 -30 -32 0 -49 28 -31 50 7 9 23 15 34 13 16 -2 21
-10 21 -33z m68 11 c3 25 4 24 6 -8 1 -44 -10 -49 -30 -11 l-14 26 -6 -29 c-6
-26 -7 -25 -7 11 l-1 40 24 -29 23 -29 5 29z m71 16 c3 -5 -5 -8 -17 -8 -26 1
-36 -31 -12 -40 21 -9 33 5 15 16 -12 8 -12 10 3 10 12 0 17 -6 15 -17 -5 -25
-52 -24 -56 0 -2 10 -1 25 2 33 6 15 41 19 50 6z m76 -47 c8 0 18 13 22 30 6
29 6 29 5 -5 -2 -30 -5 -35 -27 -35 -22 0 -25 5 -27 35 -1 34 -1 34 5 5 4 -17
14 -30 22 -30z m71 28 l14 -26 6 29 c6 26 7 25 7 -11 l1 -40 -24 29 -23 29 -5
-29 c-3 -25 -4 -24 -6 9 -1 43 10 48 30 10z m46 -25 c-2 -13 -4 -5 -4 17 -1
22 1 32 4 23 2 -10 2 -28 0 -40z m34 25 l11 -28 14 30 c15 35 19 19 4 -19 -13
-35 -25 -33 -37 9 -13 42 -7 47 8 8z m87 20 c-34 -5 -37 -22 -5 -24 l22 -2
-22 -4 c-32 -6 -29 -21 5 -26 25 -4 25 -4 -5 -6 -31 -1 -33 1 -33 34 0 33 2
35 33 34 30 -2 30 -2 5 -6z m87 -3 c4 -6 1 -17 -5 -25 -7 -8 -11 -15 -9 -16 2
0 19 -2 37 -5 35 -4 45 10 12 19 -26 7 -26 37 -1 37 11 0 22 -4 25 -9 4 -5 -3
-7 -14 -4 -11 3 -20 1 -20 -5 0 -5 9 -12 21 -15 33 -9 16 -32 -24 -33 -22 -1
-38 3 -41 12 -7 19 -24 18 -29 -3 -3 -10 -5 -1 -6 20 -1 33 2 37 23 37 14 0
28 -5 31 -10z m82 -42 c-2 -13 -4 -5 -4 17 -1 22 1 32 4 23 2 -10 2 -28 0 -40z
m97 35 c6 -14 8 -14 21 3 8 10 15 14 15 7 0 -6 -4 -15 -10 -18 -5 -3 -10 -16
-10 -28 -1 -18 -3 -16 -15 11 -8 17 -21 32 -30 32 -10 0 -16 -11 -17 -32 l-1
-33 -4 32 c-3 19 -11 34 -21 36 -9 3 2 5 24 6 30 1 44 -4 48 -16z"/>
<path d="M240 577 c-133 -37 -213 -142 -212 -277 1 -159 117 -274 277 -275
119 0 215 62 262 172 22 51 21 165 -1 216 -54 122 -204 198 -326 164z m128
-42 c-1 -13 -6 -21 -10 -17 -5 5 -6 16 -2 25 9 24 14 21 12 -8z m-93 -5 c3 -5
2 -10 -4 -10 -5 0 -13 5 -16 10 -3 6 -2 10 4 10 5 0 13 -4 16 -10z m-95 -31
c0 -5 -4 -9 -10 -9 -5 0 -10 7 -10 16 0 8 5 12 10 9 6 -3 10 -10 10 -16z m168
-4 c21 1 32 -3 32 -11 0 -8 6 -11 15 -8 8 4 15 1 15 -5 0 -6 7 -11 15 -11 8 0
14 -6 13 -12 -2 -7 3 -12 10 -10 6 1 12 -5 12 -13 0 -8 5 -15 11 -15 6 0 9 -7
5 -15 -3 -9 0 -15 8 -15 8 0 12 -11 11 -32 -1 -18 3 -36 9 -40 8 -6 8 -8 -1
-8 -7 0 -10 -13 -9 -35 2 -24 -1 -35 -10 -35 -8 0 -11 -6 -8 -15 4 -8 1 -15
-5 -15 -6 0 -11 -7 -11 -15 0 -8 -6 -14 -12 -12 -7 1 -12 -4 -11 -10 2 -7 -4
-13 -12 -13 -8 0 -15 -4 -15 -10 0 -5 -7 -7 -15 -4 -8 4 -15 1 -15 -6 0 -7 -7
-10 -15 -6 -8 3 -15 1 -15 -5 0 -6 -9 -8 -20 -4 -13 4 -20 2 -20 -7 0 -10 -2
-10 -9 1 -5 7 -13 11 -19 7 -6 -3 -14 -2 -17 4 -5 8 -11 7 -21 -1 -11 -9 -14
-8 -14 4 0 10 -6 14 -15 11 -8 -4 -15 -1 -15 5 0 6 -7 11 -15 11 -8 0 -14 6
-12 13 1 6 -4 11 -12 9 -8 -2 -11 3 -8 13 4 9 1 15 -9 15 -10 0 -14 6 -10 15
3 8 1 15 -5 15 -6 0 -9 7 -5 15 3 8 1 15 -5 15 -6 0 -8 7 -5 17 4 9 1 20 -6
25 -11 6 -10 8 0 8 9 0 11 7 7 20 -4 11 -2 20 4 20 6 0 8 7 5 15 -4 8 -1 15 6
15 7 0 10 7 6 15 -3 8 -1 15 4 15 6 0 10 7 10 15 0 8 6 14 13 13 6 -2 11 3 9
10 -1 6 5 12 13 12 8 0 15 5 15 11 0 6 7 9 15 5 9 -3 15 0 15 8 0 9 11 12 35
10 22 -1 35 2 35 9 0 9 2 9 8 1 4 -6 22 -10 40 -9z m122 1 c0 -2 -7 -7 -16
-10 -8 -3 -12 -2 -9 4 6 10 25 14 25 6z m-352 -63 c7 -7 9 -13 3 -13 -5 0 -12
4 -16 10 -3 5 -12 7 -20 3 -8 -3 -15 -1 -15 4 0 14 33 12 48 -4z m415 -8 c0
-6 -8 -11 -19 -12 -10 -2 -13 0 -6 3 6 3 9 10 6 16 -4 6 -1 9 5 7 7 -3 13 -9
14 -14z m-447 -163 c-2 -4 -1 -14 4 -22 5 -9 5 -19 -2 -27 -8 -10 -6 -13 6
-13 9 0 16 -5 16 -11 0 -7 8 -18 18 -26 9 -8 11 -11 3 -7 -11 5 -13 3 -8 -10
14 -36 -16 -9 -39 34 -36 72 -39 90 -14 90 12 0 19 -4 16 -8z m463 -10 c-20
-4 -32 -39 -15 -47 8 -3 8 -7 -2 -11 -6 -3 -10 -10 -7 -14 7 -11 -40 -62 -48
-53 -4 3 -7 0 -7 -8 0 -22 -40 -43 -54 -28 -8 9 -8 10 2 5 6 -4 12 -2 12 4 0
18 54 60 70 54 12 -4 12 -3 3 7 -7 7 -9 17 -4 23 5 6 14 28 20 48 9 29 16 35
29 30 16 -6 16 -7 1 -10z m-349 -163 c0 -5 4 -8 9 -4 5 3 12 1 16 -5 3 -5 11
-10 16 -10 6 0 8 4 5 9 -4 5 10 5 32 0 20 -4 47 -6 60 -2 16 4 22 1 22 -12 0
-13 -6 -16 -25 -13 -14 3 -28 1 -31 -4 -3 -5 -15 -1 -26 8 -14 13 -21 15 -27
6 -5 -8 -16 -7 -44 6 -38 18 -48 32 -22 32 8 0 15 -5 15 -11z"/>
<path d="M233 461 c-123 -56 -132 -231 -15 -303 134 -83 308 62 248 207 -22
52 -43 74 -91 96 -51 24 -89 23 -142 0z m113 -19 c17 -11 46 -71 39 -82 -3 -5
9 -10 27 -12 33 -3 33 -4 36 -60 2 -36 -1 -58 -7 -58 -7 0 -11 23 -11 55 l0
55 -27 -12 c-16 -7 -35 -17 -43 -24 -8 -7 -39 -14 -67 -16 -52 -3 -52 -3 -65
-45 -7 -24 -18 -43 -25 -43 -7 0 -13 5 -13 10 0 6 4 10 8 10 5 0 14 17 20 38
11 34 10 38 -13 57 -31 26 -32 35 -1 35 19 0 25 6 28 30 3 17 0 30 -5 30 -17
0 2 14 36 26 39 14 68 16 83 6z m0 -189 c4 -10 6 -21 6 -25 -1 -5 3 -8 8 -8 6
0 10 -7 10 -15 0 -12 -14 -15 -65 -15 -51 0 -65 3 -65 15 0 11 13 15 53 17
l52 2 -47 3 c-27 2 -48 6 -48 8 0 2 3 10 6 19 9 23 79 22 90 -1z m-6 -91 c0
-4 -13 -7 -30 -7 -16 -1 -30 3 -30 7 0 4 14 8 30 8 17 0 30 -3 30 -8z"/>
<path d="M313 400 c0 -25 2 -35 4 -22 2 12 2 32 0 45 -2 12 -4 2 -4 -23z"/>
<path d="M337 370 c3 -11 9 -17 14 -15 10 7 1 35 -11 35 -5 0 -6 -9 -3 -20z"/>
<path d="M1158 357 c-3 -19 -2 -25 4 -19 6 6 8 18 6 28 -3 14 -5 12 -10 -9z"/>
<path d="M790 80 c0 -5 7 -10 15 -10 8 0 15 5 15 10 0 6 -7 10 -15 10 -8 0
-15 -4 -15 -10z"/>
<path d="M790 50 c0 -5 7 -10 15 -10 8 0 15 5 15 10 0 6 -7 10 -15 10 -8 0
-15 -4 -15 -10z"/>
<path d="M1334 75 c-4 -9 -2 -21 4 -27 15 -15 44 -1 40 19 -4 23 -36 29 -44 8z"/>
<path d="M1464 75 c-4 -9 -2 -21 4 -27 15 -15 44 -1 40 19 -4 23 -36 29 -44 8z"/>
<path d="M2010 80 c0 -5 7 -10 15 -10 8 0 15 5 15 10 0 6 -7 10 -15 10 -8 0
-15 -4 -15 -10z"/>
<path d="M2195 520 c-4 -6 -1 -17 5 -25 9 -11 7 -19 -14 -38 -27 -25 -32 -37
-17 -37 4 0 25 25 45 55 l36 55 -24 0 c-14 0 -28 -5 -31 -10z"/>
<path d="M2157 476 c-10 -14 -13 -26 -8 -26 13 0 33 28 29 41 -2 6 -12 0 -21
-15z"/>
</g>
</svg>
